<svg xmlns="http://www.w3.org/2000/svg" viewBox="0 0 32 48"><defs><style>.cls-1{fill:#b3b3b3;}.cls-2{font-size:8px;font-family:Rockwell;}.cls-3{fill:#286fb1;}</style></defs><title>Recurso 2</title><g id="Capa_2" data-name="Capa 2"><g id="Capa_1-2" data-name="Capa 1"><rect class="cls-1" x="1" y="1" width="30" height="46"/><path d="M30,2V46H2V2H30m2-2H0V48H32V0Z"/><text class="cls-2" transform="translate(7.54 13.43)">8x12</text><polygon class="cls-3" points="4.68 28.17 4.52 28.17 4.28 29.63 4.44 29.63 4.68 28.17"/><polygon class="cls-3" points="4.68 28.17 4.52 28.17 4.28 29.63 4.44 29.63 4.68 28.17"/><polygon class="cls-3" points="6.91 28.17 6.75 28.17 6.51 29.63 6.67 29.63 6.91 28.17"/><polygon class="cls-3" points="7.68 28.17 7.52 28.17 7.28 29.63 7.44 29.63 7.68 28.17"/><polygon class="cls-3" points="9.51 28.17 9.35 28.17 9.12 29.63 9.28 29.63 9.51 28.17"/><polygon class="cls-3" points="11.94 28.17 11.78 28.17 11.55 29.63 11.71 29.63 11.94 28.17"/><polygon class="cls-3" points="12.88 28.17 12.72 28.17 12.49 29.63 12.65 29.63 12.88 28.17"/><polygon class="cls-3" points="13.39 28.17 13.23 28.17 12.99 29.63 13.15 29.63 13.39 28.17"/><polygon class="cls-3" points="6.04 28.17 5.88 28.17 5.24 29.63 5.39 29.63 6.04 28.17"/><polygon class="cls-3" points="5.95 28.17 6.11 28.17 6.27 29.63 6.11 29.63 5.95 28.17"/><rect class="cls-3" x="5.55" y="29.04" width="0.54" height="0.16"/><polygon class="cls-3" points="11.08 28.17 10.92 28.17 10.27 29.63 10.43 29.63 11.08 28.17"/><polygon class="cls-3" points="10.98 28.17 11.14 28.17 11.3 29.63 11.14 29.63 10.98 28.17"/><rect class="cls-3" x="10.59" y="29.04" width="0.54" height="0.16"/><polygon class="cls-3" points="15.46 28.17 15.3 28.17 14.66 29.63 14.82 29.63 15.46 28.17"/><polygon class="cls-3" points="15.37 28.17 15.53 28.17 15.69 29.63 15.53 29.63 15.37 28.17"/><rect class="cls-3" x="14.97" y="29.04" width="0.54" height="0.16"/><polygon class="cls-3" points="13.24 29.82 13.11 29.82 12.55 30.8 12.69 30.8 13.24 29.82"/><polygon class="cls-3" points="13.16 29.82 13.3 29.82 13.44 30.8 13.3 30.8 13.16 29.82"/><rect class="cls-3" x="12.83" y="30.4" width="0.46" height="0.11"/><polygon class="cls-3" points="6.77 28.17 6.93 28.17 7.42 29.63 7.26 29.63 6.77 28.17"/><polygon class="cls-3" points="12.84 28.17 12.68 28.17 12 29.63 12.16 29.63 12.84 28.17"/><polygon class="cls-3" points="11.84 28.17 12 28.17 12.13 29.63 11.97 29.63 11.84 28.17"/><path class="cls-3" d="M8.46,28.16c-.31,0-.59.31-.63.72s.19.75.5.76A.74.74,0,0,0,9,28.91C9,28.51,8.77,28.17,8.46,28.16Zm.32.74c0,.31-.23.57-.45.57S8,29.21,8,28.9s.24-.58.45-.58S8.81,28.58,8.78,28.9Z"/><path class="cls-3" d="M14.44,29.12a.49.49,0,0,1-.4.35c-.21,0-.36-.26-.33-.57s.24-.58.45-.58a.34.34,0,0,1,.31.3h.17a.53.53,0,0,0-.47-.46.7.7,0,0,0-.62.72c0,.41.18.75.49.76a.67.67,0,0,0,.58-.52Z"/><path class="cls-3" d="M9.93,28.17H9.36V29h.52a.39.39,0,0,0,.37-.41v0A.35.35,0,0,0,9.93,28.17Zm.17.39a.23.23,0,0,1-.22.24H9.39v-.47H9.9a.2.2,0,0,1,.2.21Z"/><path class="cls-3" d="M10,29.63h.2S10,29,9.83,29s-.21,0-.21,0S9.85,29,10,29.63Z"/><rect class="cls-3" x="4.65" y="28.17" width="0.47" height="0.17"/><rect class="cls-3" x="4.5" y="28.87" width="0.47" height="0.17"/><path class="cls-3" d="M5.12,28.34c.12,0,.11.53-.16.53V29c.47,0,.52-.87.16-.87Z"/><path class="cls-3" d="M12.45,29.82H12l-.21,1h.13l.08-.4h.35C12.69,30.4,12.75,29.82,12.45,29.82Zm-.14.47H12l.07-.36h.38C12.54,29.93,12.53,30.29,12.31,30.29Z"/><polygon class="cls-3" points="11.04 27.8 11.27 27.8 11.04 28.11 10.9 28.11 11.04 27.8"/><polygon class="cls-3" points="11.34 29.82 11.2 29.82 10.65 30.8 10.79 30.8 11.34 29.82"/><polygon class="cls-3" points="11.26 29.82 11.4 29.82 11.53 30.8 11.4 30.8 11.26 29.82"/><rect class="cls-3" x="10.92" y="30.4" width="0.46" height="0.11"/><polygon class="cls-3" points="9.51 29.82 9.37 29.82 8.82 30.8 8.96 30.8 9.51 29.82"/><polygon class="cls-3" points="9.43 29.82 9.56 29.82 9.7 30.8 9.56 30.8 9.43 29.82"/><rect class="cls-3" x="9.09" y="30.4" width="0.46" height="0.11"/><polygon class="cls-3" points="10.05 30.8 9.91 30.8 10.11 29.82 10.26 29.82 10.05 30.8"/><polygon class="cls-3" points="10.55 30.8 10.02 30.8 10.02 30.67 10.57 30.67 10.55 30.8"/><polygon class="cls-3" points="8.74 30.8 8.56 30.8 7.98 29.82 8.16 29.82 8.74 30.8"/><polygon class="cls-3" points="8.74 30.8 8.56 30.8 7.98 29.82 8.16 29.82 8.74 30.8"/><polygon class="cls-3" points="7.79 30.8 7.97 30.8 8.94 29.82 8.76 29.82 7.79 30.8"/><path class="cls-3" d="M16.39,29.65a.39.39,0,0,1-.33-.13.52.52,0,0,1-.06-.36h.14a.29.29,0,0,0,.06.24.32.32,0,0,0,.21.08.3.3,0,0,0,.21-.07.28.28,0,0,0,.11-.18.18.18,0,0,0-.05-.17.86.86,0,0,0-.25-.11.39.39,0,0,1-.25-.14.34.34,0,0,1-.05-.25.47.47,0,0,1,.16-.29.44.44,0,0,1,.3-.11.32.32,0,0,1,.28.11.36.36,0,0,1,.07.32H16.8a.21.21,0,0,0-.23-.26.32.32,0,0,0-.2.06.24.24,0,0,0-.09.16.16.16,0,0,0,0,.14.5.5,0,0,0,.19.08l.22.08a.4.4,0,0,1,.13.13.37.37,0,0,1,0,.24.55.55,0,0,1-.16.31A.47.47,0,0,1,16.39,29.65Z"/><path class="cls-3" d="M19.8,18a9.45,9.45,0,0,0-2.16-.4L15,23.4a7,7,0,0,1,1,.44Z"/><path class="cls-3" d="M16,17.63a10.2,10.2,0,0,0-1.88.35l-.75,5a7.88,7.88,0,0,1,.87.17Z"/><path class="cls-3" d="M22.18,38.89a11.93,11.93,0,0,0,2-1.61l-6.5-4.62h0a6.49,6.49,0,0,1-.79.67Z"/><path class="cls-3" d="M18.73,31.12a5.09,5.09,0,0,1-.55.92l7,4.06a12.09,12.09,0,0,0,1.38-2.41Z"/><path class="cls-3" d="M9.2,36.8l1-2.11c-.3,0-.6-.11-.9-.19l-.89,1.28A9.73,9.73,0,0,0,9.2,36.8Z"/><path class="cls-3" d="M8.77,21.71a10.6,10.6,0,0,0-.69,1.05l.59.85c.31-.12.61-.22.92-.31Z"/><path class="cls-3" d="M11.6,34.83c-.25,0-.5,0-.75,0l-.92,2.8a10.08,10.08,0,0,0,1.2,1Z"/><path class="cls-3" d="M13.18,34.74a8.08,8.08,0,0,1-.86.08l-.24,4.34a11.2,11.2,0,0,0,1.81.8Z"/><path class="cls-3" d="M17.87,25.44a5.62,5.62,0,0,1,.62.91l7.65-3.1a11.22,11.22,0,0,0-1.67-2.34l-6.6,4.53Z"/><path class="cls-3" d="M14.52,34.45c-.23.07-.46.13-.7.18l1.26,5.65a9.32,9.32,0,0,0,2.16.22Z"/><path class="cls-3" d="M8.52,34.25a11.38,11.38,0,0,1-1.08-.47A8,8,0,0,0,8,34.94Z"/><path class="cls-3" d="M7.68,23.51l-.3.67L8,23.9Z"/><path class="cls-3" d="M16.19,33.75a7.85,7.85,0,0,1-.77.38l3.32,6.22a7.82,7.82,0,0,0,2.05-.67l.14-.07Z"/><path class="cls-3" d="M19.19,29.2A4.86,4.86,0,0,1,19,30.29c1.61.35,7,1.54,8,1.79a12.76,12.76,0,0,0,.42-2.88Z"/><path class="cls-3" d="M16.59,24.24a7.29,7.29,0,0,1,.73.6l5.93-5a5.92,5.92,0,0,0-.48-.35,10.4,10.4,0,0,0-1.61-.92Z"/><path class="cls-3" d="M10.28,23.13a8.74,8.74,0,0,1,.87-.14l-.64-3.11A10.15,10.15,0,0,0,9.39,21Z"/><path class="cls-3" d="M18.82,27.06a5.74,5.74,0,0,1,.29,1.1l8.32-.7a11.75,11.75,0,0,0-.67-2.81Z"/><path class="cls-3" d="M11.86,22.93a8.77,8.77,0,0,1,.89,0l.19-4.53-.23.1a12.54,12.54,0,0,0-1.28.7Z"/></g></g></svg>