<svg xmlns="http://www.w3.org/2000/svg" viewBox="0 0 59.1 65.27"><defs><style>.cls-1{fill:#286fb1;}</style></defs><title>Recurso 3</title><g id="Capa_2" data-name="Capa 2"><g id="Capa_1-2" data-name="Capa 1"><path class="cls-1" d="M36.49,1.13A30.73,30.73,0,0,0,30.12,0L22.34,16.49a23.17,23.17,0,0,1,2.82,1.25Z"/><path class="cls-1" d="M25.43,0a29.66,29.66,0,0,0-5.5,1L17.71,15.36c.87.13,1.73.29,2.56.5Z"/><path class="cls-1" d="M43.48,60.67a34,34,0,0,0,5.74-4.6L30.13,42.91h0a18.79,18.79,0,0,1-2.32,1.9Z"/><path class="cls-1" d="M33.35,38.51a14.73,14.73,0,0,1-1.62,2.61L52.18,52.7a33.68,33.68,0,0,0,4-6.87Z"/><path class="cls-1" d="M5.34,54.72l3-6c-.88-.14-1.76-.33-2.65-.56L3.1,51.8A29.3,29.3,0,0,0,5.34,54.72Z"/><path class="cls-1" d="M4.1,11.66a33,33,0,0,0-2,3l1.72,2.41q1.37-.51,2.7-.87Z"/><path class="cls-1" d="M12.4,49.09c-.73,0-1.47-.07-2.22-.14l-2.69,8A31.75,31.75,0,0,0,11,59.74Z"/><path class="cls-1" d="M17.05,48.84c-.83.12-1.68.19-2.54.23l-.7,12.37a32.62,32.62,0,0,0,5.3,2.29Z"/><path class="cls-1" d="M30.82,22.29a17.22,17.22,0,0,1,1.81,2.62l22.46-8.85a31,31,0,0,0-4.9-6.67L30.82,22.3Z"/><path class="cls-1" d="M21,48c-.68.2-1.37.37-2.08.52l3.7,16.12a29.71,29.71,0,0,0,6.35.61Z"/><path class="cls-1" d="M3.36,47.43A31.21,31.21,0,0,1,.17,46.1a27.4,27.4,0,0,0,1.49,3.3Z"/><path class="cls-1" d="M.89,16.81c-.31.62-.61,1.25-.89,1.91.57-.28,1.13-.55,1.7-.8Z"/><path class="cls-1" d="M25.87,46a21.35,21.35,0,0,1-2.26,1.08l9.75,17.76a24.14,24.14,0,0,0,6-1.91l.41-.2Z"/><path class="cls-1" d="M34.69,33a13.19,13.19,0,0,1-.46,3.11c4.73,1,20.54,4.39,23.63,5.11A34.36,34.36,0,0,0,59.1,33Z"/><path class="cls-1" d="M27.05,18.89a19.1,19.1,0,0,1,2.16,1.71L46.62,6.23c-.46-.34-.93-.68-1.41-1a32,32,0,0,0-4.74-2.63Z"/><path class="cls-1" d="M8.51,15.72c.86-.18,1.71-.31,2.55-.41L9.21,6.44A30.23,30.23,0,0,0,5.91,9.5Z"/><path class="cls-1" d="M33.59,26.93a16.7,16.7,0,0,1,.88,3.13l24.41-2a33.53,33.53,0,0,0-2-8Z"/><path class="cls-1" d="M13.17,15.14c.88,0,1.75,0,2.6,0l.57-12.91-.68.29a30.29,30.29,0,0,0-3.75,2Z"/></g></g></svg>