<svg xmlns="http://www.w3.org/2000/svg" viewBox="0 0 68.19 65.27"><defs><style>.cls-1{fill:#286fb1;}</style></defs><title>Recurso 2</title><g id="Capa_2" data-name="Capa 2"><g id="Capa_1-2" data-name="Capa 1"><polygon class="cls-1" points="1.15 30.11 0.69 30.11 0 34.26 0.47 34.26 1.15 30.11"/><polygon class="cls-1" points="1.15 30.11 0.69 30.11 0 34.26 0.47 34.26 1.15 30.11"/><polygon class="cls-1" points="7.7 30.11 7.23 30.11 6.54 34.26 7.01 34.26 7.7 30.11"/><polygon class="cls-1" points="9.96 30.11 9.49 30.11 8.81 34.26 9.28 34.26 9.96 30.11"/><polygon class="cls-1" points="15.34 30.11 14.87 30.11 14.19 34.26 14.66 34.26 15.34 30.11"/><polygon class="cls-1" points="22.49 30.11 22.02 30.11 21.34 34.26 21.81 34.26 22.49 30.11"/><polygon class="cls-1" points="25.25 30.11 24.78 30.11 24.1 34.26 24.57 34.26 25.25 30.11"/><polygon class="cls-1" points="26.74 30.11 26.27 30.11 25.59 34.26 26.05 34.26 26.74 30.11"/><polygon class="cls-1" points="5.16 30.11 4.68 30.11 2.79 34.26 3.26 34.26 5.16 30.11"/><polygon class="cls-1" points="4.88 30.11 5.35 30.11 5.82 34.26 5.35 34.26 4.88 30.11"/><rect class="cls-1" x="3.72" y="32.57" width="1.57" height="0.45"/><polygon class="cls-1" points="19.95 30.11 19.48 30.11 17.59 34.26 18.06 34.26 19.95 30.11"/><polygon class="cls-1" points="19.68 30.11 20.14 30.11 20.61 34.26 20.15 34.26 19.68 30.11"/><rect class="cls-1" x="18.52" y="32.57" width="1.57" height="0.45"/><polygon class="cls-1" points="32.83 30.11 32.36 30.11 30.47 34.26 30.94 34.26 32.83 30.11"/><polygon class="cls-1" points="32.56 30.11 33.03 30.11 33.5 34.26 33.03 34.26 32.56 30.11"/><rect class="cls-1" x="31.4" y="32.57" width="1.57" height="0.45"/><polygon class="cls-1" points="26.31 34.79 25.91 34.79 24.29 37.59 24.69 37.59 26.31 34.79"/><polygon class="cls-1" points="26.08 34.79 26.48 34.79 26.88 37.59 26.48 37.59 26.08 34.79"/><rect class="cls-1" x="25.09" y="36.45" width="1.35" height="0.3"/><polygon class="cls-1" points="7.3 30.11 7.77 30.11 9.21 34.26 8.74 34.26 7.3 30.11"/><polygon class="cls-1" points="25.13 30.11 24.66 30.11 22.66 34.26 23.14 34.26 25.13 30.11"/><polygon class="cls-1" points="22.2 30.11 22.67 30.11 23.04 34.26 22.57 34.26 22.2 30.11"/><path class="cls-1" d="M12.26,30.06a2.08,2.08,0,0,0-1.83,2.06c-.11,1.16.54,2.13,1.44,2.15a2.05,2.05,0,0,0,1.83-2.05C13.81,31.05,13.16,30.09,12.26,30.06Zm1,2.11c-.1.9-.69,1.64-1.32,1.64s-1.07-.74-1-1.64.69-1.64,1.32-1.64S13.31,31.26,13.21,32.17Z"/><path class="cls-1" d="M29.83,32.79a1.42,1.42,0,0,1-1.17,1c-.63,0-1.06-.74-1-1.64s.69-1.64,1.32-1.64a1,1,0,0,1,.91.84h.49A1.55,1.55,0,0,0,29,30.06a2.08,2.08,0,0,0-1.84,2.06c-.1,1.16.54,2.13,1.45,2.15a1.88,1.88,0,0,0,1.71-1.48Z"/><path class="cls-1" d="M16.58,30.11H14.91v2.23h1.53a1.11,1.11,0,0,0,1.07-1.15v-.08A1,1,0,0,0,16.58,30.11Zm.49,1.1a.67.67,0,0,1-.65.69H15V30.54h1.5a.59.59,0,0,1,.57.61Z"/><path class="cls-1" d="M16.65,34.26h.59s-.54-1.78-1-1.92a.74.74,0,0,0-.61,0S16.35,32.55,16.65,34.26Z"/><rect class="cls-1" x="1.08" y="30.11" width="1.37" height="0.47"/><rect class="cls-1" x="0.62" y="32.1" width="1.37" height="0.47"/><path class="cls-1" d="M2.44,30.58c.35,0,.32,1.52-.45,1.52v.47c1.37,0,1.54-2.46.45-2.46Z"/><path class="cls-1" d="M24,34.79H22.54l-.62,2.8h.38l.25-1.14h1C24.68,36.45,24.86,34.79,24,34.79Zm-.4,1.34h-.95l.23-1H24C24.25,35.11,24.21,36.13,23.57,36.13Z"/><polygon class="cls-1" points="19.85 29.05 20.51 29.05 19.85 29.91 19.42 29.91 19.85 29.05"/><polygon class="cls-1" points="20.72 34.79 20.32 34.79 18.7 37.59 19.1 37.59 20.72 34.79"/><polygon class="cls-1" points="20.49 34.79 20.89 34.79 21.29 37.59 20.89 37.59 20.49 34.79"/><rect class="cls-1" x="19.49" y="36.45" width="1.35" height="0.3"/><polygon class="cls-1" points="15.34 34.79 14.94 34.79 13.32 37.59 13.72 37.59 15.34 34.79"/><polygon class="cls-1" points="15.11 34.79 15.51 34.79 15.91 37.59 15.51 37.59 15.11 34.79"/><rect class="cls-1" x="14.11" y="36.45" width="1.35" height="0.3"/><polygon class="cls-1" points="16.94 37.59 16.52 37.59 17.12 34.79 17.54 34.79 16.94 37.59"/><polygon class="cls-1" points="18.4 37.59 16.86 37.59 16.86 37.22 18.47 37.22 18.4 37.59"/><polygon class="cls-1" points="13.1 37.59 12.57 37.59 10.87 34.79 11.39 34.79 13.1 37.59"/><polygon class="cls-1" points="13.1 37.59 12.57 37.59 10.87 34.79 11.39 34.79 13.1 37.59"/><polygon class="cls-1" points="10.3 37.59 10.82 37.59 13.67 34.79 13.14 34.79 10.3 37.59"/><path class="cls-1" d="M35.56,34.32a1.09,1.09,0,0,1-1-.39,1.35,1.35,0,0,1-.19-1h.41a.8.8,0,0,0,.19.68.85.85,0,0,0,.61.22,1.06,1.06,0,0,0,.62-.19.83.83,0,0,0,.3-.52.46.46,0,0,0-.15-.49,2.41,2.41,0,0,0-.73-.3,1.39,1.39,0,0,1-.73-.41.91.91,0,0,1-.12-.71,1.35,1.35,0,0,1,1.34-1.15,1,1,0,0,1,.83.32,1.1,1.1,0,0,1,.2.91h-.41c0-.5-.19-.74-.69-.74a1,1,0,0,0-.58.17.71.71,0,0,0-.27.46.42.42,0,0,0,.09.39,1.61,1.61,0,0,0,.55.24,3.8,3.8,0,0,1,.65.24.86.86,0,0,1,.37.36,1,1,0,0,1,.08.67,1.48,1.48,0,0,1-.48.88A1.32,1.32,0,0,1,35.56,34.32Z"/><path class="cls-1" d="M45.58,1.13A30.73,30.73,0,0,0,39.21,0L31.43,16.49a23.17,23.17,0,0,1,2.82,1.25Z"/><path class="cls-1" d="M34.52,0A29.66,29.66,0,0,0,29,1L26.8,15.36a25.56,25.56,0,0,1,2.55.5Z"/><path class="cls-1" d="M52.57,60.67a34,34,0,0,0,5.74-4.6L39.22,42.91h0a18,18,0,0,1-2.31,1.9Z"/><path class="cls-1" d="M42.44,38.51a14.73,14.73,0,0,1-1.62,2.61L61.27,52.7a33.68,33.68,0,0,0,4-6.87Z"/><path class="cls-1" d="M14.43,54.72l3-6c-.88-.14-1.76-.33-2.65-.56L12.19,51.8A29.3,29.3,0,0,0,14.43,54.72Z"/><path class="cls-1" d="M13.19,11.66a33,33,0,0,0-2,3l1.72,2.41q1.37-.51,2.7-.87Z"/><path class="cls-1" d="M21.49,49.09c-.73,0-1.47-.07-2.22-.14l-2.69,8a31.75,31.75,0,0,0,3.53,2.81Z"/><path class="cls-1" d="M26.14,48.84c-.83.12-1.68.19-2.54.23l-.7,12.37a32.62,32.62,0,0,0,5.3,2.29Z"/><path class="cls-1" d="M39.91,22.29a17.22,17.22,0,0,1,1.81,2.62l22.46-8.85a31,31,0,0,0-4.9-6.67L39.91,22.3Z"/><path class="cls-1" d="M30.08,48c-.68.2-1.37.37-2.08.52l3.7,16.12a29.71,29.71,0,0,0,6.35.61Z"/><path class="cls-1" d="M12.45,47.43A31.21,31.21,0,0,1,9.26,46.1a27.4,27.4,0,0,0,1.49,3.3Z"/><path class="cls-1" d="M10,16.81c-.31.62-.61,1.25-.89,1.91.57-.28,1.13-.55,1.7-.8Z"/><path class="cls-1" d="M35,46a21.35,21.35,0,0,1-2.26,1.08l9.75,17.76a24.14,24.14,0,0,0,6-1.91l.41-.2Z"/><path class="cls-1" d="M43.78,33a13.19,13.19,0,0,1-.46,3.11c4.73,1,20.54,4.39,23.63,5.11A34.36,34.36,0,0,0,68.19,33Z"/><path class="cls-1" d="M36.14,18.89A19.1,19.1,0,0,1,38.3,20.6L55.71,6.23c-.46-.34-.93-.68-1.41-1a32,32,0,0,0-4.74-2.63Z"/><path class="cls-1" d="M17.6,15.72c.86-.18,1.71-.31,2.55-.41L18.3,6.44A30.23,30.23,0,0,0,15,9.5Z"/><path class="cls-1" d="M42.68,26.93a16.7,16.7,0,0,1,.88,3.13l24.41-2a33.53,33.53,0,0,0-2-8Z"/><path class="cls-1" d="M22.26,15.14c.88,0,1.75,0,2.6,0l.57-12.91-.68.29a30.29,30.29,0,0,0-3.75,2Z"/></g></g></svg>